<svg width="50" height="50" viewBox="0 0 50 50" fill="none" xmlns="http://www.w3.org/2000/svg">
<path d="M0 32.8126L0.781243 33.5938L4.68751 37.5L5.46876 38.2813L6.25 37.5C7.98512 35.7649 10.765 35.765 12.5001 37.5C14.2352 39.2352 14.2352 42.0149 12.5001 43.7501L11.7188 44.5314L12.5001 45.3126L16.4063 49.2188L17.1875 50L17.9688 49.2188L49.2189 17.9688L50.0001 17.1875L49.2189 16.4063L45.3126 12.5L44.5313 11.7188L43.7501 12.5C42.0149 14.2351 39.2352 14.2352 37.5001 12.5C35.765 10.765 35.7649 7.98513 37.5001 6.25001L38.2813 5.46874L37.5001 4.68751L33.5938 0.781268L32.8125 0L32.0313 0.781268L0.781243 32.0313L0 32.8126ZM3.12503 32.8126L24.2188 11.7188L38.2813 25.7813L17.1875 46.8751L14.6851 44.3726C16.4939 41.79 16.3654 38.2404 14.0625 35.9375C11.7601 33.6351 8.21002 33.5071 5.62747 35.315L3.12503 32.8126ZM25.7813 10.1563L32.8125 3.12501L35.315 5.62745C33.5072 8.21002 33.6351 11.7601 35.9376 14.0625C38.2404 16.3654 41.79 16.4939 44.3726 14.6851L46.8751 17.1875L39.8438 24.2188L25.7813 10.1563ZM17.1875 21.875L19.3604 26.9776L15.6006 31.2256L21.1792 30.6275L23.9625 35.4126L25.2442 29.9317L30.7252 28.65L25.9401 25.8667L26.5382 20.2881L22.2901 24.0479L17.1875 21.875Z" fill="url(#paint0_linear)"/>
<defs>
<linearGradient id="paint0_linear" x1="50.0001" y1="23.5294" x2="-2.63366e-07" y2="23.5294" gradientUnits="userSpaceOnUse">
<stop stop-color="#1BDD9D"/>
<stop offset="1" stop-color="#2CC9CC"/>
</linearGradient>
</defs>
</svg>
