<svg width="25" height="11" viewBox="0 0 25 11" fill="none" xmlns="http://www.w3.org/2000/svg">
<path d="M23 4.00001H1C0.734784 4.00001 0.48043 4.10537 0.292893 4.2929C0.105357 4.48044 0 4.73479 0 5.00001C0 5.26523 0.105357 5.51958 0.292893 5.70712C0.48043 5.89465 0.734784 6.00001 1 6.00001H20.15L17.38 8.22001C17.2729 8.30046 17.1831 8.40161 17.1158 8.51746C17.0486 8.6333 17.0053 8.76148 16.9885 8.89437C16.9717 9.02727 16.9818 9.16218 17.0182 9.2911C17.0546 9.42001 17.1165 9.54031 17.2003 9.64484C17.284 9.74937 17.3879 9.83601 17.5058 9.89961C17.6237 9.96322 17.7532 10.0025 17.8865 10.0151C18.0199 10.0277 18.1544 10.0134 18.2821 9.97301C18.4098 9.93262 18.5281 9.86699 18.63 9.78001L23.63 5.78001C23.7918 5.65019 23.9093 5.47325 23.966 5.27372C24.0228 5.07418 24.0161 4.86192 23.9469 4.66635C23.8777 4.47078 23.7494 4.30158 23.5797 4.18219C23.4101 4.0628 23.2075 3.99913 23 4.00001Z" fill="white"/>
<path d="M22.9959 5.99999H0.999824C0.734654 5.99999 0.480345 5.89498 0.292842 5.70805C0.105338 5.52112 0 5.26759 0 5.00324C0 4.73888 0.105338 4.48535 0.292842 4.29842C0.480345 4.1115 0.734654 4.00648 0.999824 4.00648H20.1464L17.3769 1.79369C17.2699 1.71349 17.18 1.61267 17.1128 1.4972C17.0455 1.38173 17.0023 1.25398 16.9855 1.12151C16.9687 0.989045 16.9788 0.854573 17.0152 0.726075C17.0516 0.597577 17.1135 0.477671 17.1972 0.373478C17.281 0.269285 17.3849 0.182928 17.5027 0.119531C17.6206 0.0561337 17.75 0.0169916 17.8834 0.00442505C18.0167 -0.00814152 18.1512 0.00612354 18.2789 0.0463762C18.4066 0.0866284 18.5249 0.152046 18.6267 0.238747L23.6258 4.22577C23.7876 4.35517 23.905 4.53153 23.9618 4.73042C24.0186 4.92931 24.0119 5.14088 23.9427 5.33581C23.8735 5.53075 23.7452 5.6994 23.5756 5.8184C23.4059 5.93741 23.2034 6.00087 22.9959 5.99999Z" fill="white"/>
</svg>
