<svg width="52" height="52" viewBox="0 0 52 52" fill="none" xmlns="http://www.w3.org/2000/svg">
<circle cx="26" cy="26" r="25.1875" fill="white" stroke="#64D96C" stroke-width="1.625"/>
<path d="M25.5281 12.548V12.7037L25.6646 12.773L25.8011 12.7037V12.548L25.6646 12.4788L25.5281 12.548ZM27.6608 21.7373V22.118L27.9851 22.3083L28.3092 22.118V21.7373L27.9851 21.5469L27.6608 21.7373ZM25.238 15.8533V15.5938L25.4599 15.4553L25.6817 15.5938V15.8533L25.4599 15.9918L25.238 15.8533ZM33.2572 31.3937V32.0341L33.8031 32.3456L34.3491 32.0341V31.3937L33.8031 31.0823L33.2572 31.3937ZM31.8069 28.1057V27.5346L32.2847 27.2578L32.7623 27.5346V28.1057L32.2847 28.3826L31.8069 28.1057ZM29.623 24.3331V24.8176L30.0325 25.06L30.442 24.8176V24.3331L30.0325 24.0908L29.623 24.3331ZM25.9717 18.9683V18.6222L26.2618 18.4492L26.5518 18.6222V18.9683L26.2618 19.1414L25.9717 18.9683ZM33.2572 35.3049V35.4952L33.4107 35.5817L33.5643 35.4952V35.3049L33.4107 35.2183L33.2572 35.3049Z" fill="url(#paint0_linear)"/>
<path d="M32.03 38.0043V37.8832L32.1324 37.8313L32.2347 37.8832V38.0043L32.1324 38.0562L32.03 38.0043Z" fill="url(#paint1_linear)"/>
<path d="M22.0322 16.3051V16.4608L22.1686 16.53L22.3052 16.4608V16.3051L22.1686 16.2358L22.0322 16.3051ZM27.9527 37.0025V37.1583L28.0891 37.2275L28.2257 37.1583V37.0025L28.0891 36.9333L27.9527 37.0025ZM27.3725 34.5625V34.2683L27.6284 34.1125L27.8844 34.2683V34.5625L27.6284 34.7182L27.3725 34.5625ZM25.8711 31.2917V31.7416L26.2635 31.9666L26.656 31.7416V31.2917L26.2635 31.0667L25.8711 31.2917ZM24.1478 29.0074V28.4882L24.5914 28.2286L25.0351 28.4882V29.0074L24.5914 29.2669L24.1478 29.0074ZM22.6293 25.5808V26.1866L23.1412 26.4808L23.6531 26.1866V25.5808L23.1412 25.2867L22.6293 25.5808ZM21.6909 22.8639V22.4831L22.0151 22.2928L22.3393 22.4831V22.8639L22.0151 23.0543L21.6909 22.8639ZM21.5374 19.1431V19.4028L21.7592 19.5412L21.981 19.4028V19.1431L21.7592 19.0047L21.5374 19.1431Z" fill="url(#paint2_linear)"/>
<path d="M17.8002 22.8813V23.037L17.9367 23.1062L18.0732 23.037V22.8813L17.9367 22.812L17.8002 22.8813ZM17.5955 25.4233V25.6829L17.8173 25.8213L18.0391 25.6829V25.4233L17.8173 25.2848L17.5955 25.4233ZM17.7149 28.5729V28.1922L18.0391 28.0018L18.3633 28.1922V28.5729L18.0391 28.7633L17.7149 28.5729ZM18.3291 30.6496V31.2207L18.8069 31.4976L19.2846 31.2207V30.6496L18.8069 30.3727L18.3291 30.6496ZM19.7282 33.4704V32.9858L20.1377 32.7436L20.5472 32.9858V33.4704L20.1377 33.7127L19.7282 33.4704ZM21.4856 35.2009V35.5817L21.8098 35.7721L22.1339 35.5817V35.2009L21.8098 35.0106L21.4856 35.2009ZM23.3624 37.2622V37.0026L23.5842 36.8642L23.806 37.0026V37.2622L23.5842 37.4007L23.3624 37.2622ZM25.0003 38.8024V38.9235L25.1028 38.9754L25.2051 38.9235V38.8024L25.1028 38.7505L25.0003 38.8024Z" fill="url(#paint3_linear)"/>
<path d="M28.3452 11.3363V11.4921L28.4817 11.5613L28.6182 11.4921V11.3363L28.4817 11.2671L28.3452 11.3363ZM29.0789 14.0033V14.2629L29.3007 14.4013L29.5225 14.2629V14.0033L29.3007 13.8648L29.0789 14.0033ZM30.2903 16.9087V16.4241L30.6998 16.1819L31.1092 16.4241V16.9087L30.6998 17.151L30.2903 16.9087ZM32.4572 18.847V19.4872L33.0032 19.7988L33.5491 19.4872V18.847L33.0032 18.5354L32.4572 18.847ZM35.0506 21.91V21.4947L35.4089 21.287L35.7672 21.4947V21.91L35.4089 22.1177L35.0506 21.91ZM37.0127 23.7271V23.9001L37.1662 23.9867L37.3198 23.9001V23.7271L37.1662 23.6406L37.0127 23.7271Z" fill="url(#paint4_linear)"/>
<path d="M27.1657 10.4018C27.0463 10.3845 26.9438 10.4883 26.9268 10.6095C25.9031 15.1954 26.3126 18.6393 31.943 24.5231C39.7915 32.726 33.2397 39.0079 29.8103 41.2577C29.7591 41.2923 29.6737 41.3961 29.725 41.5345C29.7762 41.6903 29.9297 41.6903 29.9809 41.6903C37.8294 39.7521 42.8797 30.3032 35.1507 23.2944C30.8852 19.418 27.6434 17.0991 27.3704 10.6614C27.3704 10.5229 27.2851 10.4191 27.1657 10.4018Z" fill="url(#paint5_linear)"/>
<path d="M25.138 11.0955C25.0355 11.0263 24.8991 11.0782 24.8308 11.182C21.5208 16.4602 22.1862 21.998 25.3426 26.359C30.956 34.0946 29.2499 39.1287 27.9361 41.4476C27.902 41.4995 27.8679 41.638 27.9702 41.7245C28.0726 41.8283 28.2091 41.7764 28.2602 41.7418C32.0651 38.6095 34.0613 32.2948 28.9086 25.3207C26.0934 21.5135 22.9028 18.3292 25.2403 11.3897C25.2744 11.3031 25.2403 11.1647 25.138 11.0955Z" fill="url(#paint6_linear)"/>
<path d="M22.5446 13.1551C22.4422 13.0859 22.3058 13.1378 22.2375 13.2243C18.3644 18.8313 17.9891 24.7653 19.6611 29.3878C22.0157 35.0813 26.52 37.831 26.8271 41.5171C26.8443 41.6037 26.8784 41.7594 27.049 41.7594C27.2196 41.7594 27.2708 41.621 27.2878 41.5517C27.9703 35.9274 24.5579 32.2067 22.8518 29.0917C20.7702 24.9383 19.4905 20.3889 22.647 13.432C22.6641 13.3455 22.6299 13.207 22.5446 13.1551Z" fill="url(#paint7_linear)"/>
<path d="M25.0697 40.1167C25.5986 40.8619 24.8896 41.6694 24.0334 41.4201C20.1269 40.2829 15.5991 36.9815 15.5991 29.9592C15.5991 27.7268 16.111 25.5463 16.7081 23.6426C16.7423 23.5215 16.8617 23.435 16.9811 23.4696C17.0835 23.4869 17.1688 23.5907 17.1518 23.7119C16.5205 28.0902 16.93 33.107 20.803 36.2739C22.7258 37.8412 24.2326 38.937 25.0697 40.1167Z" fill="url(#paint8_linear)"/>
<path d="M32.8322 16.6859C31.2817 14.923 30.3361 13.281 29.8609 12.0663C29.6671 11.5709 30.1185 11.1599 30.5633 11.4264C33.486 13.1772 36.1929 17.6104 37.7802 22.2237C37.7973 22.2583 37.7973 22.3967 37.6608 22.4314C37.5584 22.466 37.4731 22.3794 37.456 22.3448C36.5347 20.3547 34.7432 18.8491 32.8322 16.6859Z" fill="url(#paint9_linear)"/>
<defs>
<linearGradient id="paint0_linear" x1="29.6725" y1="19.0496" x2="29.6725" y2="35.6049" gradientUnits="userSpaceOnUse">
<stop stop-color="#67DE69"/>
<stop offset="1" stop-color="#0047B0"/>
</linearGradient>
<linearGradient id="paint1_linear" x1="29.6738" y1="19.0492" x2="29.6738" y2="35.6047" gradientUnits="userSpaceOnUse">
<stop stop-color="#67DE69"/>
<stop offset="1" stop-color="#0047B0"/>
</linearGradient>
<linearGradient id="paint2_linear" x1="24.9523" y1="22.1549" x2="24.9523" y2="37.2206" gradientUnits="userSpaceOnUse">
<stop stop-color="#67DE69"/>
<stop offset="1" stop-color="#0047B0"/>
</linearGradient>
<linearGradient id="paint3_linear" x1="21.3414" y1="27.4905" x2="21.3414" y2="38.9663" gradientUnits="userSpaceOnUse">
<stop stop-color="#67DE69"/>
<stop offset="1" stop-color="#0047B0"/>
</linearGradient>
<linearGradient id="paint4_linear" x1="32.8618" y1="14.9163" x2="32.8618" y2="24.2111" gradientUnits="userSpaceOnUse">
<stop stop-color="#67DE69"/>
<stop offset="1" stop-color="#0047B0"/>
</linearGradient>
<linearGradient id="paint5_linear" x1="32.7026" y1="19.3246" x2="32.7026" y2="41.7696" gradientUnits="userSpaceOnUse">
<stop stop-color="#67DE69"/>
<stop offset="1" stop-color="#0047B0"/>
</linearGradient>
<linearGradient id="paint6_linear" x1="27.3629" y1="19.5844" x2="27.3629" y2="41.2162" gradientUnits="userSpaceOnUse">
<stop stop-color="#67DE69"/>
<stop offset="1" stop-color="#0047B0"/>
</linearGradient>
<linearGradient id="paint7_linear" x1="22.8231" y1="20.9228" x2="22.8231" y2="40.7336" gradientUnits="userSpaceOnUse">
<stop stop-color="#67DE69"/>
<stop offset="1" stop-color="#0047B0"/>
</linearGradient>
<linearGradient id="paint8_linear" x1="20.6945" y1="28.6398" x2="20.6945" y2="41.7945" gradientUnits="userSpaceOnUse">
<stop stop-color="#67DE69"/>
<stop offset="1" stop-color="#0047B0"/>
</linearGradient>
<linearGradient id="paint9_linear" x1="33.5841" y1="14.1254" x2="33.8235" y2="22.5466" gradientUnits="userSpaceOnUse">
<stop stop-color="#67DE69"/>
<stop offset="1" stop-color="#0047B0"/>
</linearGradient>
</defs>
</svg>
