<svg width="46" height="50" viewBox="0 0 46 50" fill="none" xmlns="http://www.w3.org/2000/svg">
<path d="M1.05811 45.0279H27.6222C28.1791 45.0279 28.6246 44.581 28.6246 44.0223C28.6246 43.4637 28.1791 43.0168 27.6222 43.0168H2.06053V2.06704H28.1791V5.47486C28.1791 7.26257 29.627 8.71508 31.4091 8.71508H35.0847V20.2235C35.0847 20.7821 35.5302 21.229 36.0871 21.229C36.644 21.229 37.0895 20.7821 37.0895 20.2235V7.65363C37.0895 7.43017 36.9781 7.2067 36.8667 7.03911C36.8667 6.98324 36.811 6.98324 36.811 6.92737L29.9055 0.27933C29.7384 0.111732 29.46 0 29.1815 0H1.05811C0.44552 0 0 0.446927 0 1.00559V43.9665C0 44.581 0.44552 45.0279 1.05811 45.0279ZM30.2396 3.40782L33.581 6.64804H31.4091C30.7408 6.64804 30.2396 6.08939 30.2396 5.47486V3.40782Z" fill="url(#paint0_linear)"/>
<path d="M26.1743 32.6257C26.1743 35.9776 27.845 38.9385 30.3511 40.7262V40.7821V48.9944C30.3511 49.3854 30.5738 49.7206 30.8523 49.8882C31.0193 50 31.1864 50 31.3535 50C31.5205 50 31.6876 49.9441 31.8547 49.8324L36.0871 47.3184L40.3196 49.8324C40.6537 50 41.0435 50 41.322 49.8324C41.6561 49.6648 41.8232 49.3296 41.8232 48.9385V40.7821V40.7262C44.3292 38.9385 45.9999 35.9776 45.9999 32.6257C45.9999 27.0949 41.5447 22.6257 36.0314 22.6257C30.6295 22.6257 26.1743 27.0949 26.1743 32.6257ZM39.874 47.2067L36.644 45.3072C36.3099 45.1396 35.9201 45.1396 35.5859 45.3072L32.4116 47.2067V41.8435C33.5811 42.2905 34.8063 42.5698 36.1428 42.5698C37.4794 42.5698 38.7046 42.2905 39.874 41.8435V47.2067ZM44.0508 32.6257C44.0508 36.9832 40.4866 40.5586 36.1428 40.5586C31.799 40.5586 28.2348 36.9832 28.2348 32.6257C28.2348 28.2681 31.799 24.6927 36.1428 24.6927C40.4866 24.6927 44.0508 28.2123 44.0508 32.6257Z" fill="url(#paint1_linear)"/>
<path d="M36.1428 26.7039C35.4188 26.7039 34.8062 27.1508 34.5834 27.8212L33.9708 29.7207H31.966C31.242 29.7207 30.6295 30.1676 30.4067 30.838C30.1839 31.5084 30.4067 32.2346 31.0193 32.6816L32.6343 33.8548L32.0217 35.7542C31.7989 36.4246 32.0217 37.1508 32.6343 37.5978C33.1912 37.9888 33.9708 37.9888 34.5277 37.5978L36.1428 36.4246L37.7578 37.5978C38.0362 37.8212 38.3704 37.933 38.7045 37.933C39.0386 37.933 39.3728 37.8212 39.6512 37.5978C40.2081 37.2067 40.4866 36.4246 40.2638 35.7542L39.6512 33.8548L41.2662 32.6816C41.8231 32.2905 42.1016 31.5084 41.8788 30.838C41.6561 30.1676 41.0435 29.7207 40.3195 29.7207H38.3147L37.7021 27.8212C37.4793 27.1508 36.811 26.7039 36.1428 26.7039ZM37.9805 31.7877H38.9829L38.1476 32.4022C37.5907 32.8492 37.3679 33.5754 37.535 34.2458L37.8691 35.1955L37.0338 34.581C36.4769 34.19 35.6972 34.19 35.1403 34.581L34.305 35.1955L34.6391 34.2458C34.8619 33.5754 34.6391 32.8492 34.0265 32.4022L33.1912 31.7877H34.1936C34.9176 31.7877 35.5302 31.3408 35.7529 30.6704L36.0871 29.7207L36.4212 30.6704C36.644 31.2849 37.2566 31.7877 37.9805 31.7877Z" fill="url(#paint2_linear)"/>
<path d="M11.5837 7.76533C11.1382 7.43014 10.4699 7.54187 10.1358 7.9888L8.13096 10.838L7.51837 10.2793C7.12854 9.88824 6.46026 9.88824 6.07043 10.3352C5.6806 10.7262 5.6806 11.3966 6.12612 11.7877L7.57406 13.1843C7.74113 13.3519 8.01957 13.4637 8.29802 13.4637C8.35371 13.4637 8.35371 13.4637 8.4094 13.4637C8.68785 13.4078 8.9663 13.2961 9.13337 13.0167L11.8065 9.21785C12.1406 8.71505 12.0293 8.10053 11.5837 7.76533Z" fill="url(#paint3_linear)"/>
<path d="M14.0337 13.4078H27.2322C27.7891 13.4078 28.2346 12.9609 28.2346 12.4023C28.2346 11.8436 27.7891 11.3967 27.2322 11.3967H14.0337C13.4768 11.3967 13.0312 11.8436 13.0312 12.4023C13.0312 12.9609 13.4768 13.4078 14.0337 13.4078Z" fill="url(#paint4_linear)"/>
<path d="M11.5837 14.8604C11.1382 14.5252 10.4699 14.6369 10.1358 15.0838L8.13096 17.933L7.51837 17.3743C7.12854 16.9833 6.46026 16.9833 6.07043 17.4302C5.6806 17.8213 5.6806 18.4916 6.12612 18.8827L7.57406 20.2794C7.74113 20.447 8.01957 20.5587 8.29802 20.5587C8.35371 20.5587 8.35371 20.5587 8.4094 20.5587C8.68785 20.5028 8.9663 20.3911 9.13337 20.1118L11.8065 16.3129C12.1406 15.866 12.0293 15.1956 11.5837 14.8604Z" fill="url(#paint5_linear)"/>
<path d="M14.0337 20.5028H27.2322C27.7891 20.5028 28.2346 20.0559 28.2346 19.4972C28.2346 18.9386 27.7891 18.4916 27.2322 18.4916H14.0337C13.4768 18.4916 13.0312 18.9386 13.0312 19.4972C13.0312 20.0559 13.4768 20.5028 14.0337 20.5028Z" fill="url(#paint6_linear)"/>
<path d="M11.5837 22.0112C11.1382 21.676 10.4699 21.7877 10.1358 22.2346L8.13096 25.0838L7.51837 24.5251C7.12854 24.1341 6.46026 24.1341 6.07043 24.581C5.6806 24.9721 5.6806 25.6425 6.12612 26.0335L7.57406 27.4302C7.74113 27.5978 8.01957 27.7095 8.29802 27.7095C8.35371 27.7095 8.35371 27.7095 8.4094 27.7095C8.68785 27.6536 8.9663 27.5419 9.13337 27.2626L11.8065 23.4637C12.1406 22.9609 12.0293 22.2905 11.5837 22.0112Z" fill="url(#paint7_linear)"/>
<path d="M26.3411 26.5922C26.3411 26.0335 25.8956 25.5866 25.3387 25.5866H14.0337C13.4768 25.5866 13.0312 26.0335 13.0312 26.5922C13.0312 27.1509 13.4768 27.5978 14.0337 27.5978H25.3387C25.8956 27.6536 26.3411 27.1509 26.3411 26.5922Z" fill="url(#paint8_linear)"/>
<path d="M10.1358 29.3296L8.13096 32.1788L7.51837 31.6201C7.12854 31.2291 6.46026 31.2291 6.07043 31.676C5.6806 32.067 5.6806 32.7374 6.12612 33.1285L7.57406 34.5251C7.74113 34.6927 8.01957 34.8045 8.29802 34.8045C8.35371 34.8045 8.35371 34.8045 8.4094 34.8045C8.68785 34.7486 8.9663 34.6369 9.13337 34.3575L11.8065 30.5587C12.1406 30.1117 12.0293 29.4413 11.5837 29.1062C11.0825 28.771 10.4699 28.8827 10.1358 29.3296Z" fill="url(#paint9_linear)"/>
<path d="M14.0337 32.6816C13.4768 32.6816 13.0312 33.1285 13.0312 33.6872C13.0312 34.2458 13.4768 34.6928 14.0337 34.6928H23.501C24.0579 34.6928 24.5034 34.2458 24.5034 33.6872C24.5034 33.1285 24.0579 32.6816 23.501 32.6816H14.0337Z" fill="url(#paint10_linear)"/>
<defs>
<linearGradient id="paint0_linear" x1="37.0895" y1="21.1896" x2="-1.95362e-07" y2="21.1896" gradientUnits="userSpaceOnUse">
<stop stop-color="#1BDD9D"/>
<stop offset="1" stop-color="#2CC9CC"/>
</linearGradient>
<linearGradient id="paint1_linear" x1="45.9999" y1="35.5077" x2="26.1743" y2="35.5077" gradientUnits="userSpaceOnUse">
<stop stop-color="#1BDD9D"/>
<stop offset="1" stop-color="#2CC9CC"/>
</linearGradient>
<linearGradient id="paint2_linear" x1="41.9557" y1="31.9882" x2="30.3223" y2="31.9882" gradientUnits="userSpaceOnUse">
<stop stop-color="#1BDD9D"/>
<stop offset="1" stop-color="#2CC9CC"/>
</linearGradient>
<linearGradient id="paint3_linear" x1="12.0008" y1="10.3437" x2="5.78467" y2="10.3437" gradientUnits="userSpaceOnUse">
<stop stop-color="#1BDD9D"/>
<stop offset="1" stop-color="#2CC9CC"/>
</linearGradient>
<linearGradient id="paint4_linear" x1="28.2346" y1="12.3431" x2="13.0312" y2="12.3431" gradientUnits="userSpaceOnUse">
<stop stop-color="#1BDD9D"/>
<stop offset="1" stop-color="#2CC9CC"/>
</linearGradient>
<linearGradient id="paint5_linear" x1="12.0008" y1="17.4387" x2="5.78467" y2="17.4387" gradientUnits="userSpaceOnUse">
<stop stop-color="#1BDD9D"/>
<stop offset="1" stop-color="#2CC9CC"/>
</linearGradient>
<linearGradient id="paint6_linear" x1="28.2346" y1="19.4381" x2="13.0312" y2="19.4381" gradientUnits="userSpaceOnUse">
<stop stop-color="#1BDD9D"/>
<stop offset="1" stop-color="#2CC9CC"/>
</linearGradient>
<linearGradient id="paint7_linear" x1="12.0008" y1="24.5896" x2="5.78467" y2="24.5896" gradientUnits="userSpaceOnUse">
<stop stop-color="#1BDD9D"/>
<stop offset="1" stop-color="#2CC9CC"/>
</linearGradient>
<linearGradient id="paint8_linear" x1="26.3411" y1="26.535" x2="13.0312" y2="26.535" gradientUnits="userSpaceOnUse">
<stop stop-color="#1BDD9D"/>
<stop offset="1" stop-color="#2CC9CC"/>
</linearGradient>
<linearGradient id="paint9_linear" x1="12.0008" y1="31.6845" x2="5.78467" y2="31.6845" gradientUnits="userSpaceOnUse">
<stop stop-color="#1BDD9D"/>
<stop offset="1" stop-color="#2CC9CC"/>
</linearGradient>
<linearGradient id="paint10_linear" x1="24.5034" y1="33.628" x2="13.0312" y2="33.628" gradientUnits="userSpaceOnUse">
<stop stop-color="#1BDD9D"/>
<stop offset="1" stop-color="#2CC9CC"/>
</linearGradient>
</defs>
</svg>
