<svg width="54" height="46" viewBox="0 0 54 46" fill="none" xmlns="http://www.w3.org/2000/svg">
<path d="M14.04 27.2634C14.8944 27.2634 15.7296 27.0019 16.4401 26.512C17.1505 26.0221 17.7042 25.3258 18.0312 24.5111C18.3581 23.6964 18.4437 22.8 18.277 21.9351C18.1103 21.0703 17.6989 20.2759 17.0947 19.6523C16.4905 19.0288 15.7208 18.6042 14.8828 18.4322C14.0448 18.2601 13.1762 18.3484 12.3868 18.6859C11.5974 19.0233 10.9227 19.5948 10.4481 20.328C9.97336 21.0612 9.72 21.9231 9.72 22.8049C9.72 23.9874 10.1751 25.1214 10.9853 25.9575C11.7955 26.7937 12.8943 27.2634 14.04 27.2634ZM14.04 20.6315C14.4672 20.6315 14.8848 20.7622 15.24 21.0071C15.5952 21.2521 15.8721 21.6003 16.0356 22.0076C16.1991 22.4149 16.2418 22.8631 16.1585 23.2956C16.0752 23.728 15.8694 24.1252 15.5674 24.437C15.2653 24.7487 14.8804 24.961 14.4614 25.0471C14.0424 25.1331 13.6081 25.0889 13.2134 24.9202C12.8187 24.7515 12.4814 24.4658 12.244 24.0992C12.0067 23.7326 11.88 23.3016 11.88 22.8607C11.88 22.2694 12.1076 21.7024 12.5127 21.2844C12.9177 20.8663 13.4671 20.6315 14.04 20.6315ZM6.3288 40.1929H21.6756C21.962 40.1929 22.2367 40.0754 22.4393 39.8664C22.6418 39.6574 22.7556 39.3739 22.7556 39.0783V37.1277C22.6759 34.7867 21.7188 32.569 20.0859 30.9419C18.453 29.3149 16.2719 28.4056 14.0022 28.4056C11.7325 28.4056 9.55136 29.3149 7.91849 30.9419C6.28561 32.569 5.32849 34.7867 5.2488 37.1277V39.0783C5.2488 39.3739 5.36259 39.6574 5.56512 39.8664C5.76766 40.0754 6.04237 40.1929 6.3288 40.1929ZM7.4088 37.1277C7.47772 35.3706 8.20252 33.7092 9.43148 32.4911C10.6604 31.2731 12.2983 30.5929 14.0022 30.5929C15.7061 30.5929 17.344 31.2731 18.5729 32.4911C19.8019 33.7092 20.5267 35.3706 20.5956 37.1277V37.9637H7.4088V37.1277ZM51.84 12.5059H45.0684V2.11776C45.0698 1.84111 45.0184 1.56689 44.9172 1.31074C44.8159 1.05459 44.6667 0.821539 44.4782 0.624886C44.2896 0.428233 44.0654 0.271833 43.8183 0.164615C43.5712 0.0573963 43.3061 0.00145986 43.038 0H7.1388C6.87074 0.00145986 6.60559 0.0573963 6.35848 0.164615C6.11138 0.271833 5.88715 0.428233 5.69861 0.624886C5.51007 0.821539 5.36091 1.05459 5.25964 1.31074C5.15837 1.56689 5.10698 1.84111 5.1084 2.11776V12.5059H2.16C1.58222 12.5205 1.03286 12.7676 0.629259 13.1946C0.225661 13.6215 -0.000171834 14.1944 9.81001e-08 14.7909V43.7708C9.81001e-08 44.362 0.227571 44.929 0.632649 45.3471C1.03773 45.7651 1.58713 46 2.16 46H51.84C52.4129 46 52.9623 45.7651 53.3674 45.3471C53.7724 44.929 54 44.362 54 43.7708V14.7909C54.0002 14.1944 53.7743 13.6215 53.3707 13.1946C52.9671 12.7676 52.4178 12.5205 51.84 12.5059ZM7.2684 2.22922H42.9084V12.5059H7.2684V2.22922ZM51.9048 43.8042H2.1384L2.16 14.7352L51.9264 14.7909L51.9048 43.8042ZM27.1728 18.6697C27.1728 18.3741 27.2866 18.0906 27.4891 17.8816C27.6917 17.6726 27.9664 17.5551 28.2528 17.5551H49.1616C49.448 17.5551 49.7227 17.6726 49.9253 17.8816C50.1278 18.0906 50.2416 18.3741 50.2416 18.6697C50.2416 18.9653 50.1278 19.2489 49.9253 19.4579C49.7227 19.6669 49.448 19.7843 49.1616 19.7843H28.2528C27.9664 19.7843 27.6917 19.6669 27.4891 19.4579C27.2866 19.2489 27.1728 18.9653 27.1728 18.6697ZM27.1728 25.7587C27.1728 25.463 27.2866 25.1795 27.4891 24.9705C27.6917 24.7615 27.9664 24.6441 28.2528 24.6441H49.1616C49.448 24.6441 49.7227 24.7615 49.9253 24.9705C50.1278 25.1795 50.2416 25.463 50.2416 25.7587C50.2416 26.0543 50.1278 26.3378 49.9253 26.5468C49.7227 26.7558 49.448 26.8733 49.1616 26.8733H28.2528C27.9664 26.8733 27.6917 26.7558 27.4891 26.5468C27.2866 26.3378 27.1728 26.0543 27.1728 25.7587ZM27.1728 32.8364C27.1728 32.5408 27.2866 32.2573 27.4891 32.0483C27.6917 31.8393 27.9664 31.7218 28.2528 31.7218H49.1616C49.448 31.7218 49.7227 31.8393 49.9253 32.0483C50.1278 32.2573 50.2416 32.5408 50.2416 32.8364C50.2416 33.1321 50.1278 33.4156 49.9253 33.6246C49.7227 33.8336 49.448 33.9511 49.1616 33.9511H28.2528C27.9664 33.9511 27.6917 33.8336 27.4891 33.6246C27.2866 33.4156 27.1728 33.1321 27.1728 32.8364ZM27.1728 39.9254C27.1728 39.6298 27.2866 39.3463 27.4891 39.1372C27.6917 38.9282 27.9664 38.8108 28.2528 38.8108H49.1616C49.448 38.8108 49.7227 38.9282 49.9253 39.1372C50.1278 39.3463 50.2416 39.6298 50.2416 39.9254C50.2416 40.221 50.1278 40.5045 49.9253 40.7135C49.7227 40.9226 49.448 41.04 49.1616 41.04H28.2528C27.9664 41.04 27.6917 40.9226 27.4891 40.7135C27.2866 40.5045 27.1728 40.221 27.1728 39.9254ZM41.04 6.20838C41.04 6.504 40.9262 6.7875 40.7237 6.99653C40.5211 7.20556 40.2464 7.32299 39.96 7.32299H20.9088C20.6224 7.32299 20.3477 7.20556 20.1451 6.99653C19.9426 6.7875 19.8288 6.504 19.8288 6.20838C19.8288 5.91277 19.9426 5.62927 20.1451 5.42024C20.3477 5.21121 20.6224 5.09377 20.9088 5.09377H39.96C40.2464 5.09377 40.5211 5.21121 40.7237 5.42024C40.9262 5.62927 41.04 5.91277 41.04 6.20838Z" fill="url(#paint0_linear)"/>
<defs>
<linearGradient id="paint0_linear" x1="54" y1="21.6471" x2="-2.84435e-07" y2="21.6471" gradientUnits="userSpaceOnUse">
<stop stop-color="#1BDD9D"/>
<stop offset="1" stop-color="#2CC9CC"/>
</linearGradient>
</defs>
</svg>
